<svg width="40" height="40" viewBox="0 0 40 40" fill="none" xmlns="http://www.w3.org/2000/svg">
<path d="M26.6666 5C25.7825 5 24.9347 5.35119 24.3096 5.97631C23.6844 6.60143 23.3333 7.44928 23.3333 8.33333V18.3333C23.3333 19.2174 23.6844 20.0652 24.3096 20.6904C24.9347 21.3155 25.7825 21.6667 26.6666 21.6667C27.1086 21.6667 27.5325 21.8423 27.8451 22.1548C28.1577 22.4674 28.3333 22.8913 28.3333 23.3333V25C28.3333 25.8841 27.9821 26.7319 27.3569 27.357C26.7318 27.9821 25.884 28.3333 24.9999 28.3333C24.5579 28.3333 24.134 28.5089 23.8214 28.8215C23.5088 29.134 23.3333 29.558 23.3333 30V33.3333C23.3333 33.7754 23.5088 34.1993 23.8214 34.5118C24.134 34.8244 24.5579 35 24.9999 35C27.6521 35 30.1956 33.9464 32.071 32.0711C33.9464 30.1957 34.9999 27.6522 34.9999 25V8.33333C34.9999 7.44928 34.6487 6.60143 34.0236 5.97631C33.3985 5.35119 32.5506 5 31.6666 5H26.6666Z" fill="#0724AE" fill-opacity="0.2" stroke="#0724AE" stroke-opacity="0.2" stroke-width="3.33333" stroke-linecap="round" stroke-linejoin="round"/>
<path d="M8.33333 5C7.44928 5 6.60143 5.35119 5.97631 5.97631C5.35119 6.60143 5 7.44928 5 8.33333V18.3333C5 19.2174 5.35119 20.0652 5.97631 20.6904C6.60143 21.3155 7.44928 21.6667 8.33333 21.6667C8.77536 21.6667 9.19928 21.8423 9.51184 22.1548C9.8244 22.4674 10 22.8913 10 23.3333V25C10 25.8841 9.64881 26.7319 9.02369 27.357C8.39857 27.9821 7.55072 28.3333 6.66667 28.3333C6.22464 28.3333 5.80072 28.5089 5.48816 28.8215C5.17559 29.134 5 29.558 5 30V33.3333C5 33.7754 5.17559 34.1993 5.48816 34.5118C5.80072 34.8244 6.22464 35 6.66667 35C9.31883 35 11.8624 33.9464 13.7377 32.0711C15.6131 30.1957 16.6667 27.6522 16.6667 25V8.33333C16.6667 7.44928 16.3155 6.60143 15.6904 5.97631C15.0652 5.35119 14.2174 5 13.3333 5H8.33333Z" fill="#0724AE" fill-opacity="0.2" stroke="#0724AE" stroke-opacity="0.2" stroke-width="3.33333" stroke-linecap="round" stroke-linejoin="round"/>
</svg>
